<?xml version="1.0" encoding="UTF-8" standalone="no"?>
<svg
   xmlns:dc="http://purl.org/dc/elements/1.1/"
   xmlns:cc="http://creativecommons.org/ns#"
   xmlns:rdf="http://www.w3.org/1999/02/22-rdf-syntax-ns#"
   xmlns:svg="http://www.w3.org/2000/svg"
   xmlns="http://www.w3.org/2000/svg"
   xmlns:sodipodi="http://sodipodi.sourceforge.net/DTD/sodipodi-0.dtd"
   xmlns:inkscape="http://www.inkscape.org/namespaces/inkscape"
   version="1.1"
   id="svg2"
   xml:space="preserve"
   width="818.62665"
   height="254.62666"
   viewBox="0 0 818.62665 254.62666"
   sodipodi:docname="Airwalk Reply - LOGO RGB.eps"><metadata
     id="metadata8"><rdf:RDF><cc:Work
         rdf:about=""><dc:format>image/svg+xml</dc:format><dc:type
           rdf:resource="http://purl.org/dc/dcmitype/StillImage" /></cc:Work></rdf:RDF></metadata><defs
     id="defs6" /><sodipodi:namedview
     pagecolor="#ffffff"
     bordercolor="#666666"
     borderopacity="1"
     objecttolerance="10"
     gridtolerance="10"
     guidetolerance="10"
     inkscape:pageopacity="0"
     inkscape:pageshadow="2"
     inkscape:window-width="640"
     inkscape:window-height="480"
     id="namedview4" /><g
     id="g10"
     inkscape:groupmode="layer"
     inkscape:label="ink_ext_XXXXXX"
     transform="matrix(1.3333333,0,0,-1.3333333,0,254.62667)"><g
       id="g12"
       transform="scale(0.1)"><path
         d="m 1469.7,1909.72 c -90.61,0 -163.85,-73.45 -163.85,-164.16 0,-90.43 73.24,-163.77 163.85,-163.77 90.43,0 163.87,73.34 163.87,163.77 0,90.71 -73.44,164.16 -163.87,164.16"
         style="fill:#60ccef;fill-opacity:1;fill-rule:nonzero;stroke:none"
         id="path14" /><path
         d="m 1110.29,1220.06 204.75,269.53 c 10.46,13.78 11.33,32.59 2.18,47.28 l -86.96,139.54 c -7.68,12.3 -21.18,19.74 -35.68,19.64 l -375.346,-2.62 v 0 l -205.789,0.16 c -16.113,0 -23.273,-20.26 -10.734,-30.37 l 57.668,-46.5 c 8.113,-6.54 17.723,-10.98 27.957,-12.9 L 1045.78,1536.48 603.621,1061.28 21.668,978.613 C 1.51172,975.754 -7.09375,951.406 6.79297,936.516 L 63.6289,875.57 c 11.25,-12.058 27.082,-18.789 43.5661,-18.531 l 561.797,9.231 c 20.809,0.339 41.153,6.23 58.926,17.05 l 134.609,81.973 284.093,-225.484 c 11.19,-8.887 18.5,-21.75 20.43,-35.911 l 54.08,-398.187 c 2.55,-18.77 18.58,-32.77 37.53,-32.77 h 28.93 c 20.86,0 37.8,16.868 37.88,37.731 l 1.66,441.887 c 0.08,22.8 -7.21,45.019 -20.81,63.332 l -247.87,334.099 51.84,70.07"
         style="fill:#60ccef;fill-opacity:1;fill-rule:nonzero;stroke:none"
         id="path16" /><path
         d="m 2545.41,1326.25 c 0,81.33 -63.58,131.59 -146.38,131.59 H 2177.25 V 1191.7 h 221.78 c 82.8,0 146.38,50.27 146.38,134.55 z m -20.7,-669.781 -193.69,350.421 H 2177.25 V 656.469 h -209.96 v 986.201 h 461.32 c 205.52,0 332.67,-134.55 332.67,-317.89 0,-172.99 -110.89,-267.62 -217.35,-292.76 L 2767.2,656.469 h -242.49"
         style="fill:#153b43;fill-opacity:1;fill-rule:nonzero;stroke:none"
         id="path18" /><path
         d="m 2917.96,656.469 v 986.201 h 697.89 v -184.83 h -487.92 v -207 H 3605.5 V 1066.03 H 3127.93 V 841.281 h 487.92 V 656.469 h -697.89"
         style="fill:#153b43;fill-opacity:1;fill-rule:nonzero;stroke:none"
         id="path20" /><path
         d="m 4358.05,1324.78 c 0,82.8 -63.58,133.06 -146.37,133.06 h -221.8 v -264.66 h 221.8 c 82.79,0 146.37,50.28 146.37,131.6 z M 3779.93,656.469 v 986.201 h 461.31 c 214.39,0 331.2,-144.9 331.2,-317.89 0,-171.52 -118.28,-316.42 -331.2,-316.42 H 3989.88 V 656.469 h -209.95"
         style="fill:#153b43;fill-opacity:1;fill-rule:nonzero;stroke:none"
         id="path22" /><path
         d="m 4695.13,656.469 v 986.201 h 211.44 V 841.281 h 416.95 V 656.469 h -628.39"
         style="fill:#153b43;fill-opacity:1;fill-rule:nonzero;stroke:none"
         id="path24" /><path
         d="m 5552.68,656.469 v 403.641 l -378.51,582.56 h 239.53 l 243.96,-394.78 243.96,394.78 h 238.05 L 5762.63,1060.11 V 656.469 h -209.95"
         style="fill:#153b43;fill-opacity:1;fill-rule:nonzero;stroke:none"
         id="path26" /><path
         d="M 2130.91,338.801 2057,142.91 h 147.84 z M 2255.35,0 2225.16,79.4609 H 2036.67 L 2006.49,0 h -81.93 l 161.39,410.871 h 89.94 L 2337.27,0 h -81.92"
         style="fill:#60ccef;fill-opacity:1;fill-rule:nonzero;stroke:none"
         id="path28" /><path
         d="m 2381.66,0 v 410.871 h 72.07 V 0 h -72.07"
         style="fill:#60ccef;fill-opacity:1;fill-rule:nonzero;stroke:none"
         id="path30" /><path
         d="m 2782.66,282.738 c 0,39.434 -29.57,64.684 -70.22,64.684 h -99.17 V 216.84 h 99.17 c 40.65,0 70.22,25.871 70.22,65.898 z M 2775.89,0 2685.34,153.391 h -72.07 V 0 h -72.07 v 410.871 h 180.48 c 81.31,0 134.91,-52.351 134.91,-128.742 0,-72.688 -48.06,-112.731 -97.95,-120.731 L 2859.66,0 h -83.77"
         style="fill:#60ccef;fill-opacity:1;fill-rule:nonzero;stroke:none"
         id="path32" /><path
         d="M 3242.84,0 3163.38,303.691 3083.3,0 h -77 l -117.04,410.871 h 80.08 l 80.08,-316.0116 85.01,316.0116 h 57.29 l 85.01,-316.0116 80.07,316.0116 h 80.7 L 3319.84,0 h -77"
         style="fill:#60ccef;fill-opacity:1;fill-rule:nonzero;stroke:none"
         id="path34" /><path
         d="M 3621.09,338.801 3547.17,142.91 h 147.85 z M 3745.52,0 3715.34,79.4609 h -188.5 L 3496.67,0 h -81.94 l 161.4,410.871 h 89.93 L 3827.45,0 h -81.93"
         style="fill:#60ccef;fill-opacity:1;fill-rule:nonzero;stroke:none"
         id="path36" /><path
         d="m 3866.9,0 v 410.871 h 72.07 V 63.4492 h 181.1 V 0 H 3866.9"
         style="fill:#60ccef;fill-opacity:1;fill-rule:nonzero;stroke:none"
         id="path38" /><path
         d="m 4429.32,0 -137.37,173.711 -36.34,-42.5 V 0 h -72.07 v 410.871 h 72.07 V 215.609 l 160.77,195.262 h 89.32 L 4338.77,217.449 4518.64,0 h -89.32"
         style="fill:#60ccef;fill-opacity:1;fill-rule:nonzero;stroke:none"
         id="path40" /></g></g></svg>
