<?xml version="1.0" encoding="utf-8"?>
<!-- Generator: Adobe Illustrator 26.0.1, SVG Export Plug-In . SVG Version: 6.00 Build 0)  -->
<svg version="1.1" id="Layer_1" xmlns="http://www.w3.org/2000/svg" xmlns:xlink="http://www.w3.org/1999/xlink" x="0px" y="0px"
	 viewBox="0 0 230 71.1" style="enable-background:new 0 0 230 71.1;" xml:space="preserve">
<style type="text/css">
	.st0{fill:#51C1EB;}
	.st1{fill:#004149;}
</style>
<g>
	<path class="st0" d="M55.1,0C51.7,0,49,2.7,49,6.1s2.7,6.1,6.1,6.1c3.4,0,6.1-2.7,6.1-6.1C61.2,2.7,58.5,0,55.1,0"/>
	<path class="st0" d="M41.6,25.8l7.7-10.1c0.4-0.5,0.4-1.2,0.1-1.8l-3.3-5.2C45.8,8.3,45.3,8,44.8,8l-14,0.1h-7.7
		c-0.6,0-0.9,0.8-0.4,1.1l2.2,1.7c0.3,0.2,0.7,0.4,1,0.5L39.2,14L22.7,31.7L0.9,34.8c-0.8,0.1-1.1,1-0.6,1.6l2.1,2.3
		c0.4,0.5,1,0.7,1.6,0.7l21-0.3c0.8,0,1.5-0.2,2.2-0.6l5-3.1L43,43.8c0.4,0.3,0.7,0.8,0.8,1.3l2,14.9c0.1,0.7,0.7,1.2,1.4,1.2h1.1
		c0.8,0,1.4-0.6,1.4-1.4l0.1-16.5c0-0.9-0.3-1.7-0.8-2.4l-9.3-12.5L41.6,25.8z"/>
	<path class="st1" d="M176.2,46.6V9.9h7.9v29.8h15.5v6.9H176.2z M142.1,46.6V9.9h17.2c8,0,12.3,5.4,12.3,11.8s-4.4,11.8-12.3,11.8
		H150v13.1H142.1z M163.7,21.7c0-3.1-2.4-4.9-5.5-4.9H150v9.8h8.3C161.3,26.6,163.7,24.8,163.7,21.7 M110,46.6V9.9h26v6.9h-18.2v7.7
		h17.8v6.9h-17.8v8.4H136v6.9h-26V46.6z M95.4,46.6l-7.2-13h-5.7v13h-7.8V9.9h17.2c7.7,0,12.4,5,12.4,11.8c0,6.4-4.1,10-8.1,10.9
		l8.3,14H95.4L95.4,46.6z M96.2,21.7c0-3-2.4-4.9-5.5-4.9h-8.3v9.9h8.3C93.8,26.7,96.2,24.8,96.2,21.7"/>
</g>
<polygon class="st1" points="221.2,9.9 212.1,24.6 203,9.9 194.1,9.9 208.2,31.6 208.2,46.6 208.2,46.6 216,46.6 216,31.6 230,9.9 
	"/>
<path class="st0" d="M145.4,71L145.4,71L145.4,71z M73,71L73,71h3l0,0H73z M85.4,71L85.4,71h3.1l0,0H85.4z M96,71h2.7l0,0H96L96,71z
	 M104.7,71L104.7,71h3.1l0,0H104.7z M113.3,71L113.3,71h2.9l0,0H113.3z M122.1,71L122.1,71h2.9l0,0H122.1z M128.5,71L128.5,71h3l0,0
	H128.5z M140.9,71L140.9,71h3.1l0,0H140.9z M145.4,71h9.4l0,0H145.4L145.4,71z M157.2,71h2.7l0,0H157.2L157.2,71z M166.3,71
	L166.3,71h3.3l0,0H166.3z"/>
<g>
	<path class="st0" d="M169.2,55.7h-3.3l-6,7.3v-7.3h-2.7V71h2.7v-4.9l1.4-1.6l5.1,6.4h3.3l-6.7-8.1L169.2,55.7z M148.1,55.7h-2.7V71
		h9.4v-2.3h-6.7V55.7z M137.9,55.7h-3.3l-6,15.3h3.1l1.1-2.9h7l1.1,2.9h3.1L137.9,55.7z M133.5,65.7l2.8-7.3l2.8,7.3H133.5z
		 M129.4,55.7h-3l-3,11.7l-3.2-11.7h-2.1l-3.2,11.7l-3-11.7h-3l4.4,15.3h2.9l3-11.3l3,11.3h2.9L129.4,55.7z M102.7,55.7H96V71h2.7
		v-5.7h2.7l3.4,5.7h3.1l-3.7-6c1.9-0.3,3.6-1.8,3.6-4.5C107.8,57.7,105.8,55.7,102.7,55.7 M98.7,62.9V58h3.7c1.5,0,2.6,0.9,2.6,2.4
		s-1.1,2.4-2.6,2.4L98.7,62.9L98.7,62.9z M92.7,55.7H90V71h2.7V55.7z M82.4,55.7H79L73,71h3.1l1.1-2.9h7l1.1,2.9h3.1L82.4,55.7z
		 M78,65.7l2.8-7.3l2.8,7.3H78z"/>
</g>
</svg>
