<?xml version="1.0" encoding="utf-8"?>
<!-- Generator: Adobe Illustrator 26.0.1, SVG Export Plug-In . SVG Version: 6.00 Build 0)  -->
<svg version="1.1" id="Layer_1" xmlns="http://www.w3.org/2000/svg" xmlns:xlink="http://www.w3.org/1999/xlink" x="0px" y="0px"
	 viewBox="0 0 228 71" style="enable-background:new 0 0 228 71;" xml:space="preserve">
<style type="text/css">
	.st0{fill:#51C1EB;}
	.st1{fill:#FFFFFF;}
</style>
<g>
	<g>
		<path class="st0" d="M54.8,0.4c-3.3,0-6.1,2.7-6.1,6.1c0,3.3,2.7,6.1,6.1,6.1c3.3,0,6.1-2.7,6.1-6.1C60.8,3.2,58.1,0.4,54.8,0.4"
			/>
		<path class="st0" d="M41.5,25.9l7.6-10c0.4-0.5,0.4-1.2,0.1-1.7L46,9c-0.3-0.5-0.8-0.7-1.3-0.7l-14,0.1h-7.6
			c-0.6,0-0.9,0.7-0.4,1.1l2.1,1.7c0.3,0.2,0.7,0.4,1,0.5L39,14.2L22.8,31.8L1.3,34.9c-0.7,0.1-1.1,1-0.6,1.6l2.1,2.3
			c0.4,0.4,1,0.7,1.6,0.7L25.2,39c0.8,0,1.5-0.2,2.2-0.6l5-3l10.5,8.3c0.4,0.3,0.7,0.8,0.8,1.3l2,14.7c0.1,0.7,0.7,1.2,1.4,1.2H48
			c0.8,0,1.4-0.6,1.4-1.4l0.1-16.3c0-0.8-0.3-1.7-0.8-2.3l-9.2-12.3L41.5,25.9z"/>
		<path class="st1" d="M174.4,46.4V10.2h7.8v29.4h15.3v6.8C197.5,46.4,174.4,46.4,174.4,46.4z M140.7,46.4V10.2h17
			c7.9,0,12.2,5.3,12.2,11.7c0,6.3-4.3,11.6-12.2,11.6h-9.2v12.9H140.7z M162,21.9c0-3-2.3-4.9-5.4-4.9h-8.2v9.7h8.2
			C159.7,26.7,162,24.9,162,21.9 M109,46.4V10.2h25.7V17h-17.9v7.6h17.6v6.8h-17.6v8.3h17.9v6.8L109,46.4L109,46.4z M94.6,46.4
			l-7.1-12.9h-5.7v12.9h-7.7V10.2h17c7.6,0,12.2,4.9,12.2,11.7c0,6.4-4.1,9.8-8,10.8l8.2,13.8L94.6,46.4L94.6,46.4z M95.3,21.9
			c0-3-2.3-4.8-5.4-4.8h-8.2v9.8H90C93,26.8,95.3,24.9,95.3,21.9"/>
	</g>
	<polygon class="st1" points="218.8,10.2 209.8,24.7 200.8,10.2 192,10.2 205.9,31.6 205.9,46.4 213.7,46.4 213.7,31.6 227.5,10.2 	
		"/>
	<path class="st0" d="M143.9,70.6L143.9,70.6L143.9,70.6z M72.5,70.5L72.5,70.5h3l0,0H72.5z M84.7,70.5L84.7,70.5h3l0,0H84.7z
		 M95.2,70.6h2.7l0,0H95.2L95.2,70.6z M103.8,70.5L103.8,70.5h3.1l0,0H103.8z M112.3,70.5L112.3,70.5h2.8l0,0H112.3z M121,70.5
		L121,70.5h2.8l0,0H121z M127.3,70.5L127.3,70.5h3l0,0H127.3z M139.5,70.5L139.5,70.5h3l0,0H139.5z M143.9,70.5h9.3l0,0H143.9
		L143.9,70.5z M155.6,70.6h2.7l0,0H155.6L155.6,70.6z M164.6,70.5L164.6,70.5h3.3l0,0H164.6z"/>
	<g>
		<path class="st0" d="M167.4,55.5h-3.3l-5.9,7.2v-7.2h-2.7v15.1h2.7v-4.8l1.3-1.6l5,6.4h3.3l-6.6-8L167.4,55.5z M146.6,55.5h-2.7
			v15.1h9.3v-2.3h-6.7L146.6,55.5L146.6,55.5z M136.6,55.5h-3.3l-5.9,15.1h3l1.1-2.9h6.9l1.1,2.9h3L136.6,55.5z M132.2,65.3l2.7-7.2
			l2.7,7.2H132.2z M128.2,55.5h-3l-2.9,11.6l-3.1-11.6H117l-3.1,11.6L111,55.5h-3l4.3,15.1h2.8l2.9-11.1l2.9,11.1h2.8L128.2,55.5z
			 M101.8,55.5h-6.6v15.1h2.7V65h2.7l3.3,5.6h3.1l-3.7-5.9c1.8-0.3,3.6-1.8,3.6-4.4C106.8,57.4,104.8,55.5,101.8,55.5 M97.8,62.6
			v-4.8h3.6c1.5,0,2.6,0.9,2.6,2.4s-1.1,2.4-2.6,2.4C101.4,62.6,97.8,62.6,97.8,62.6z M92,55.5h-2.7v15.1H92V55.5z M81.8,55.5h-3.3
			l-5.9,15.1h3l1.1-2.9h6.9l1.1,2.9h3L81.8,55.5z M77.4,65.3l2.7-7.2l2.7,7.2H77.4z"/>
	</g>
</g>
</svg>
